<svg xmlns="http://www.w3.org/2000/svg" version="1.1" xmlns:xlink="http://www.w3.org/1999/xlink" viewBox="0 0 200 200" width="200" height="200"><metadata><rdf:RDF xmlns:rdf="http://www.w3.org/1999/02/22-rdf-syntax-ns#" xmlns:dc="http://purl.org/dc/elements/1.1/"><rdf:Description><dc:creator>RealFaviconGenerator</dc:creator><dc:source>https://realfavicongenerator.net</dc:source></rdf:Description></rdf:RDF></metadata><rect width="200" height="200" fill="url('#gradient')"></rect><defs><linearGradient id="gradient" gradientTransform="rotate(45 0.5 0.5)"><stop offset="0%" stop-color="#ffffff"></stop><stop offset="100%" stop-color="#ffffff"></stop></linearGradient></defs><g><g fill="#000000" transform="matrix(4.533202164289228,0,0,4.533202164289228,5.140011769295683,134.02156545983354)" stroke="#000000" stroke-width="0.2"><path d="M10.03-8.30L10.03-5.66L4.50-5.66L4.50 0L1.07 0L1.07-14.22L10.59-14.22L10.59-11.57L4.50-11.57L4.50-8.30L10.03-8.30ZM18.06-10.64L18.00-7.59L16.91-7.67Q15.36-7.67 14.92-6.69L14.92-6.69L14.92 0L11.63 0L11.63-10.57L14.72-10.57L14.82-9.21Q15.65-10.76 17.14-10.76L17.14-10.76Q17.67-10.76 18.06-10.64L18.06-10.64ZM19.12-10.57L22.21-10.57L22.31-9.33Q23.41-10.76 25.33-10.76L25.33-10.76Q26.98-10.76 27.80-9.78Q28.61-8.79 28.64-6.81L28.64-6.81L28.64 0L25.34 0L25.34-6.67Q25.34-7.47 25.02-7.85Q24.70-8.22 23.85-8.22L23.85-8.22Q22.88-8.22 22.41-7.46L22.41-7.46L22.41 0L19.12 0L19.12-10.57ZM37.01 0L34.71-3.94L33.78-3.01L33.78 0L30.49 0L30.49-15.01L33.78-15.01L33.78-7.04L34.11-7.48L36.59-10.57L40.54-10.57L36.84-6.22L40.78 0L37.01 0Z"></path></g></g></svg>